999
dxflib 2.2.0.0
  0
SECTION
  2
HEADER
  9
$ACADVER
  1
AC1015
  9
$HANDSEED
  5
FFFF
  9
$SPLINESEGS
 70
8
  9
$DIMEXE
 40
1.25
  9
$PSVPSCALE
 40
1.0
  9
$DIMLUNIT
 70
2
  9
$GRIDMODE
 70
1
  9
$INSUNITS
 70
4
  9
$DIMADEC
 70
2
  9
$DIMASZ
 40
2.5
  9
$DIMGAP
 40
0.625
  9
$DIMTXT
 40
2.5
  9
$GRIDUNIT
 10
0.0
 20
0.0
  9
$DIMEXO
 40
0.625
  9
$LUPREC
 70
4
  9
$PINSBASE
 10
-9.178470254957503
 20
103.3073654390935
 30
0.0
  9
$DIMAUNIT
 70
0
  9
$AUPREC
 70
2
  9
$PLIMMIN
 10
0.0
 20
0.0
  9
$LUNITS
 70
2
  9
$PLIMMAX
 10
250.0
 20
200.0
  9
$DIMSTYLE
  2
Standard
  9
$AUNITS
 70
0
  0
ENDSEC
  0
SECTION
  2
TABLES
  0
TABLE
  2
VPORT
  5
8
100
AcDbSymbolTable
 70
1
  0
VPORT
  5
30
100
AcDbSymbolTableRecord
100
AcDbViewportTableRecord
  2
*Active
 70
0
 10
0.0
 20
0.0
 11
1.0
 21
1.0
 12
286.30555555555549
 22
148.5
 13
0.0
 23
0.0
 14
10.0
 24
10.0
 15
10.0
 25
10.0
 16
0.0
 26
0.0
 36
1.0
 17
0.0
 27
0.0
 37
0.0
 40
297.0
 41
1.92798353909465
 42
50.0
 43
0.0
 44
0.0
 50
0.0
 51
0.0
 71
0
 72
100
 73
1
 74
3
 75
1
 76
1
 77
0
 78
0
281
0
 65
1
110
0.0
120
0.0
130
0.0
111
1.0
121
0.0
131
0.0
112
0.0
122
1.0
132
0.0
 79
0
146
0.0
  0
ENDTAB
  0
TABLE
  2
LTYPE
  5
5
100
AcDbSymbolTable
 70
21
  0
LTYPE
  5
14
100
AcDbSymbolTableRecord
100
AcDbLinetypeTableRecord
  2
ByBlock
 70
0
  3

 72
65
 73
0
 40
0.0
  0
LTYPE
  5
15
100
AcDbSymbolTableRecord
100
AcDbLinetypeTableRecord
  2
ByLayer
 70
0
  3

 72
65
 73
0
 40
0.0
  0
LTYPE
  5
16
100
AcDbSymbolTableRecord
100
AcDbLinetypeTableRecord
  2
CONTINUOUS
 70
0
  3
Solid line
 72
65
 73
0
 40
0.0
  0
LTYPE
  5
31
100
AcDbSymbolTableRecord
100
AcDbLinetypeTableRecord
  2
DOT
 70
0
  3
Dot . . . . . . . . . . . . . . . . . . . . . .
 72
65
 73
2
 40
6.3499999999999996
 49
0.0
 74
0
 49
-6.3499999999999996
 74
0
  0
LTYPE
  5
32
100
AcDbSymbolTableRecord
100
AcDbLinetypeTableRecord
  2
DOT2
 70
0
  3
Dot (.5x) .....................................
 72
65
 73
2
 40
3.1749999999999998
 49
0.0
 74
0
 49
-3.1749999999999998
 74
0
  0
LTYPE
  5
33
100
AcDbSymbolTableRecord
100
AcDbLinetypeTableRecord
  2
DOTX2
 70
0
  3
Dot (2x) .  .  .  .  .  .  .  .  .  .  .  .  .
 72
65
 73
2
 40
12.699999999999999
 49
0.0
 74
0
 49
-12.699999999999999
 74
0
  0
LTYPE
  5
34
100
AcDbSymbolTableRecord
100
AcDbLinetypeTableRecord
  2
DASHED
 70
0
  3
Dashed __ __ __ __ __ __ __ __ __ __ __ __ __ _
 72
65
 73
2
 40
19.050000000000001
 49
12.699999999999999
 74
0
 49
-6.3499999999999996
 74
0
  0
LTYPE
  5
35
100
AcDbSymbolTableRecord
100
AcDbLinetypeTableRecord
  2
DASHED2
 70
0
  3
Dashed (.5x) _ _ _ _ _ _ _ _ _ _ _ _ _ _ _ _ _
 72
65
 73
2
 40
9.5250000000000004
 49
6.3499999999999996
 74
0
 49
-3.1749999999999998
 74
0
  0
LTYPE
  5
36
100
AcDbSymbolTableRecord
100
AcDbLinetypeTableRecord
  2
DASHEDX2
 70
0
  3
Dashed (2x) ____  ____  ____  ____  ____  ___
 72
65
 73
2
 40
38.100000000000001
 49
25.399999999999999
 74
0
 49
-12.699999999999999
 74
0
  0
LTYPE
  5
37
100
AcDbSymbolTableRecord
100
AcDbLinetypeTableRecord
  2
DASHDOT
 70
0
  3
Dash dot __ . __ . __ . __ . __ . __ . __ . __
 72
65
 73
4
 40
25.399999999999999
 49
12.699999999999999
 74
0
 49
-6.3499999999999996
 74
0
 49
0.0
 74
0
 49
-6.3499999999999996
 74
0
  0
LTYPE
  5
38
100
AcDbSymbolTableRecord
100
AcDbLinetypeTableRecord
  2
DASHDOT2
 70
0
  3
Dash dot (.5x) _._._._._._._._._._._._._._._.
 72
65
 73
4
 40
12.699999999999999
 49
6.3499999999999996
 74
0
 49
-3.1749999999999998
 74
0
 49
0.0
 74
0
 49
-3.1749999999999998
 74
0
  0
LTYPE
  5
39
100
AcDbSymbolTableRecord
100
AcDbLinetypeTableRecord
  2
DASHDOTX2
 70
0
  3
Dash dot (2x) ____  .  ____  .  ____  .  ___
 72
65
 73
4
 40
50.799999999999997
 49
25.399999999999999
 74
0
 49
-12.699999999999999
 74
0
 49
0.0
 74
0
 49
-12.699999999999999
 74
0
  0
LTYPE
  5
3A
100
AcDbSymbolTableRecord
100
AcDbLinetypeTableRecord
  2
DIVIDE
 70
0
  3
Divide ____ . . ____ . . ____ . . ____ . . ____
 72
65
 73
6
 40
31.75
 49
12.699999999999999
 74
0
 49
-6.3499999999999996
 74
0
 49
0.0
 74
0
 49
-6.3499999999999996
 74
0
 49
0.0
 74
0
 49
-6.3499999999999996
 74
0
  0
LTYPE
  5
3B
100
AcDbSymbolTableRecord
100
AcDbLinetypeTableRecord
  2
DIVIDE2
 70
0
  3
Divide (.5x) __..__..__..__..__..__..__..__.._
 72
65
 73
6
 40
15.875
 49
6.3499999999999996
 74
0
 49
-3.1749999999999998
 74
0
 49
0.0
 74
0
 49
-3.1749999999999998
 74
0
 49
0.0
 74
0
 49
-3.1749999999999998
 74
0
  0
LTYPE
  5
3C
100
AcDbSymbolTableRecord
100
AcDbLinetypeTableRecord
  2
DIVIDEX2
 70
0
  3
Divide (2x) ________  .  .  ________  .  .  _
 72
65
 73
6
 40
63.5
 49
25.399999999999999
 74
0
 49
-12.699999999999999
 74
0
 49
0.0
 74
0
 49
-12.699999999999999
 74
0
 49
0.0
 74
0
 49
-12.699999999999999
 74
0
  0
LTYPE
  5
3D
100
AcDbSymbolTableRecord
100
AcDbLinetypeTableRecord
  2
CENTER
 70
0
  3
Center ____ _ ____ _ ____ _ ____ _ ____ _ ____
 72
65
 73
4
 40
50.799999999999997
 49
31.75
 74
0
 49
-6.3499999999999996
 74
0
 49
6.3499999999999996
 74
0
 49
-6.3499999999999996
 74
0
  0
LTYPE
  5
3E
100
AcDbSymbolTableRecord
100
AcDbLinetypeTableRecord
  2
CENTER2
 70
0
  3
Center (.5x) ___ _ ___ _ ___ _ ___ _ ___ _ ___
 72
65
 73
4
 40
28.574999999999999
 49
19.050000000000001
 74
0
 49
-3.1749999999999998
 74
0
 49
3.1749999999999998
 74
0
 49
-3.1749999999999998
 74
0
  0
LTYPE
  5
3F
100
AcDbSymbolTableRecord
100
AcDbLinetypeTableRecord
  2
CENTERX2
 70
0
  3
Center (2x) ________  __  ________  __  _____
 72
65
 73
4
 40
101.59999999999999
 49
63.5
 74
0
 49
-12.699999999999999
 74
0
 49
12.699999999999999
 74
0
 49
-12.699999999999999
 74
0
  0
LTYPE
  5
40
100
AcDbSymbolTableRecord
100
AcDbLinetypeTableRecord
  2
BORDER
 70
0
  3
Border __ __ . __ __ . __ __ . __ __ . __ __ .
 72
65
 73
6
 40
44.450000000000003
 49
12.699999999999999
 74
0
 49
-6.3499999999999996
 74
0
 49
12.699999999999999
 74
0
 49
-6.3499999999999996
 74
0
 49
0.0
 74
0
 49
-6.3499999999999996
 74
0
  0
LTYPE
  5
41
100
AcDbSymbolTableRecord
100
AcDbLinetypeTableRecord
  2
BORDER2
 70
0
  3
Border (.5x) __.__.__.__.__.__.__.__.__.__.__.
 72
65
 73
6
 40
22.225000000000001
 49
6.3499999999999996
 74
0
 49
-3.1749999999999998
 74
0
 49
6.3499999999999996
 74
0
 49
-3.1749999999999998
 74
0
 49
0.0
 74
0
 49
-3.1749999999999998
 74
0
  0
LTYPE
  5
42
100
AcDbSymbolTableRecord
100
AcDbLinetypeTableRecord
  2
BORDERX2
 70
0
  3
Border (2x) ____  ____  .  ____  ____  .  ___
 72
65
 73
6
 40
88.900000000000006
 49
25.399999999999999
 74
0
 49
-12.699999999999999
 74
0
 49
25.399999999999999
 74
0
 49
-12.699999999999999
 74
0
 49
0.0
 74
0
 49
-12.699999999999999
 74
0
  0
ENDTAB
  0
TABLE
  2
LAYER
  5
2
100
AcDbSymbolTable
 70
4
  0
LAYER
  5
10
100
AcDbSymbolTableRecord
100
AcDbLayerTableRecord
  2
0
 70
0
 62
2
  6
CONTINUOUS
370
0
390
F
  0
LAYER
  5
43
100
AcDbSymbolTableRecord
100
AcDbLayerTableRecord
  2
Laser-Cut
 70
0
 62
1
  6
CONTINUOUS
370
0
390
F
  0
LAYER
  5
44
100
AcDbSymbolTableRecord
100
AcDbLayerTableRecord
  2
Laser_Kana_Engrave
 70
0
 62
7
  6
CONTINUOUS
370
0
390
F
  0
LAYER
  5
45
100
AcDbSymbolTableRecord
100
AcDbLayerTableRecord
  2
ButtonGuide
 70
1
 62
3
  6
CONTINUOUS
370
0
390
F
  0
ENDTAB
  0
TABLE
  2
STYLE
  5
3
100
AcDbSymbolTable
 70
1
  0
STYLE
  5
11
100
AcDbSymbolTableRecord
100
AcDbTextStyleTableRecord
  2
Standard
 70
0
 40
0.0
 41
0.75
 50
0.0
 71
0
 42
2.5
  3
txt
  4

  0
ENDTAB
  0
TABLE
  2
VIEW
  5
6
100
AcDbSymbolTable
 70
0
  0
ENDTAB
  0
TABLE
  2
UCS
  5
7
100
AcDbSymbolTable
 70
0
  0
ENDTAB
  0
TABLE
  2
APPID
  5
9
100
AcDbSymbolTable
 70
1
  0
APPID
  5
12
100
AcDbSymbolTableRecord
100
AcDbRegAppTableRecord
  2
ACAD
 70
0
  0
ENDTAB
  0
TABLE
  2
DIMSTYLE
  5
A
100
AcDbSymbolTable
 70
1
100
AcDbDimStyleTable
 71
0
  0
DIMSTYLE
105
27
100
AcDbSymbolTableRecord
100
AcDbDimStyleTableRecord
  2
Standard
 41
2.5
 42
0.625
 43
3.75
 44
1.25
 70
0
 73
0
 74
0
 77
1
 78
8
140
2.5
141
2.5
143
0.03937007874016
147
0.625
171
3
172
1
271
2
272
2
274
3
278
44
283
0
284
8
340
11
  0
ENDTAB
  0
TABLE
  2
BLOCK_RECORD
  5
1
100
AcDbSymbolTable
 70
1
  0
BLOCK_RECORD
  5
1F
100
AcDbSymbolTableRecord
100
AcDbBlockTableRecord
  2
*Model_Space
340
22
  0
BLOCK_RECORD
  5
1B
100
AcDbSymbolTableRecord
100
AcDbBlockTableRecord
  2
*Paper_Space
340
1E
  0
BLOCK_RECORD
  5
23
100
AcDbSymbolTableRecord
100
AcDbBlockTableRecord
  2
*Paper_Space0
340
26
  0
ENDTAB
  0
ENDSEC
  0
SECTION
  2
BLOCKS
  0
BLOCK
  5
20
100
AcDbEntity
  8
0
100
AcDbBlockBegin
  2
*Model_Space
 70
0
 10
0.0
 20
0.0
 30
0.0
  3
*Model_Space
  1

  0
ENDBLK
  5
21
100
AcDbEntity
  8
0
100
AcDbBlockEnd
  0
BLOCK
  5
1C
100
AcDbEntity
 67
1
  8
0
100
AcDbBlockBegin
  2
*Paper_Space
 70
0
 10
0.0
 20
0.0
 30
0.0
  3
*Paper_Space
  1

  0
ENDBLK
  5
1D
100
AcDbEntity
 67
1
  8
0
100
AcDbBlockEnd
  0
BLOCK
  5
24
100
AcDbEntity
  8
0
100
AcDbBlockBegin
  2
*Paper_Space0
 70
0
 10
0.0
 20
0.0
 30
0.0
  3
*Paper_Space0
  1

  0
ENDBLK
  5
25
100
AcDbEntity
  8
0
100
AcDbBlockEnd
  0
ENDSEC
  0
SECTION
  2
ENTITIES
  0
LINE
  5
46
100
AcDbEntity
100
AcDbLine
  8
Laser_Kana_Engrave
 62
256
370
-1
  6
ByLayer
 10
104.54850151348302
 20
63.574285773212068
 30
0.0
 11
102.62013868442341
 21
65.872419102568983
 31
0.0
  0
LINE
  5
47
100
AcDbEntity
100
AcDbLine
  8
Laser_Kana_Engrave
 62
256
370
-1
  6
ByLayer
 10
102.62013868442341
 20
65.872419102568983
 30
0.0
 11
103.38618312754238
 21
66.51520671225552
 31
0.0
  0
LINE
  5
48
100
AcDbEntity
100
AcDbLine
  8
Laser_Kana_Engrave
 62
256
370
-1
  6
ByLayer
 10
103.38618312754238
 20
66.51520671225552
 30
0.0
 11
105.31454595660199
 21
64.217073382898604
 31
0.0
  0
LINE
  5
49
100
AcDbEntity
100
AcDbLine
  8
Laser_Kana_Engrave
 62
256
370
-1
  6
ByLayer
 10
105.31454595660199
 20
64.217073382898604
 30
0.0
 11
104.54850151348302
 21
63.574285773212068
 31
0.0
  0
LINE
  5
4A
100
AcDbEntity
100
AcDbLine
  8
Laser_Kana_Engrave
 62
256
370
-1
  6
ByLayer
 10
106.54850151348302
 20
63.574285773212068
 30
0.0
 11
104.62013868442341
 21
65.872419102568983
 31
0.0
  0
LINE
  5
4B
100
AcDbEntity
100
AcDbLine
  8
Laser_Kana_Engrave
 62
256
370
-1
  6
ByLayer
 10
104.62013868442341
 20
65.872419102568983
 30
0.0
 11
105.38618312754238
 21
66.51520671225552
 31
0.0
  0
LINE
  5
4C
100
AcDbEntity
100
AcDbLine
  8
Laser_Kana_Engrave
 62
256
370
-1
  6
ByLayer
 10
105.38618312754238
 20
66.51520671225552
 30
0.0
 11
107.31454595660199
 21
64.217073382898604
 31
0.0
  0
LINE
  5
4D
100
AcDbEntity
100
AcDbLine
  8
Laser_Kana_Engrave
 62
256
370
-1
  6
ByLayer
 10
107.31454595660199
 20
64.217073382898604
 30
0.0
 11
106.54850151348302
 21
63.574285773212068
 31
0.0
  0
LINE
  5
4E
100
AcDbEntity
100
AcDbLine
  8
Laser_Kana_Engrave
 62
256
370
-1
  6
ByLayer
 10
102.0
 20
65.0
 30
0.0
 11
94.0
 21
65.0
 31
0.0
  0
LINE
  5
4F
100
AcDbEntity
100
AcDbLine
  8
Laser_Kana_Engrave
 62
256
370
-1
  6
ByLayer
 10
94.0
 20
65.0
 30
0.0
 11
94.0
 21
55.0
 31
0.0
  0
LINE
  5
50
100
AcDbEntity
100
AcDbLine
  8
Laser_Kana_Engrave
 62
256
370
-1
  6
ByLayer
 10
94.0
 20
55.0
 30
0.0
 11
102.0
 21
55.0
 31
0.0
  0
LINE
  5
51
100
AcDbEntity
100
AcDbLine
  8
Laser_Kana_Engrave
 62
256
370
-1
  6
ByLayer
 10
102.0
 20
55.0
 30
0.0
 11
102.0
 21
65.0
 31
0.0
  0
LINE
  5
52
100
AcDbEntity
100
AcDbLine
  8
Laser_Kana_Engrave
 62
256
370
-1
  6
ByLayer
 10
122.0
 20
45.0
 30
0.0
 11
114.0
 21
45.0
 31
0.0
  0
LINE
  5
53
100
AcDbEntity
100
AcDbLine
  8
Laser_Kana_Engrave
 62
256
370
-1
  6
ByLayer
 10
114.0
 20
45.0
 30
0.0
 11
114.0
 21
35.0
 31
0.0
  0
LINE
  5
54
100
AcDbEntity
100
AcDbLine
  8
Laser_Kana_Engrave
 62
256
370
-1
  6
ByLayer
 10
114.0
 20
35.0
 30
0.0
 11
122.0
 21
35.0
 31
0.0
  0
LINE
  5
55
100
AcDbEntity
100
AcDbLine
  8
Laser_Kana_Engrave
 62
256
370
-1
  6
ByLayer
 10
122.0
 20
35.0
 30
0.0
 11
122.0
 21
45.0
 31
0.0
  0
CIRCLE
  5
56
100
AcDbEntity
100
AcDbCircle
  8
Laser_Kana_Engrave
 62
256
370
-1
  6
ByLayer
 10
125.0
 20
44.0
 30
0.0
 40
2.0
  0
CIRCLE
  5
57
100
AcDbEntity
100
AcDbCircle
  8
Laser_Kana_Engrave
 62
256
370
-1
  6
ByLayer
 10
125.0
 20
44.0
 30
0.0
 40
1.0
  0
LINE
  5
58
100
AcDbEntity
100
AcDbLine
  8
Laser_Kana_Engrave
 62
256
370
-1
  6
ByLayer
 10
95.0
 20
64.0
 30
0.0
 11
101.0
 21
64.0
 31
0.0
  0
LINE
  5
59
100
AcDbEntity
100
AcDbLine
  8
Laser_Kana_Engrave
 62
256
370
-1
  6
ByLayer
 10
101.0
 20
64.0
 30
0.0
 11
101.0
 21
56.0
 31
0.0
  0
LINE
  5
5A
100
AcDbEntity
100
AcDbLine
  8
Laser_Kana_Engrave
 62
256
370
-1
  6
ByLayer
 10
101.0
 20
56.0
 30
0.0
 11
95.0
 21
56.0
 31
0.0
  0
LINE
  5
5B
100
AcDbEntity
100
AcDbLine
  8
Laser_Kana_Engrave
 62
256
370
-1
  6
ByLayer
 10
95.0
 20
56.0
 30
0.0
 11
95.0
 21
64.0
 31
0.0
  0
LINE
  5
5C
100
AcDbEntity
100
AcDbLine
  8
Laser_Kana_Engrave
 62
256
370
-1
  6
ByLayer
 10
115.0
 20
44.0
 30
0.0
 11
121.0
 21
44.0
 31
0.0
  0
LINE
  5
5D
100
AcDbEntity
100
AcDbLine
  8
Laser_Kana_Engrave
 62
256
370
-1
  6
ByLayer
 10
121.0
 20
44.0
 30
0.0
 11
121.0
 21
36.0
 31
0.0
  0
LINE
  5
5E
100
AcDbEntity
100
AcDbLine
  8
Laser_Kana_Engrave
 62
256
370
-1
  6
ByLayer
 10
121.0
 20
36.0
 30
0.0
 11
115.0
 21
36.0
 31
0.0
  0
LINE
  5
5F
100
AcDbEntity
100
AcDbLine
  8
Laser_Kana_Engrave
 62
256
370
-1
  6
ByLayer
 10
115.0
 20
36.0
 30
0.0
 11
115.0
 21
44.0
 31
0.0
  0
MTEXT
  5
60
100
AcDbEntity
100
AcDbMText
  8
Laser_Kana_Engrave
 62
256
370
-1
  6
ByLayer
 10
18.0
 20
60.0
 30
0.0
 40
10.0
 41
100.0
 71
5
 72
2
  1
N
  7
kochigothic
 50
0.0
 73
0
 44
1.0
  0
MTEXT
  5
61
100
AcDbEntity
100
AcDbMText
  8
Laser_Kana_Engrave
 62
256
370
-1
  6
ByLayer
 10
18.0
 20
40.0
 30
0.0
 40
10.0
 41
100.0
 71
5
 72
2
  1
W
  7
kochigothic
 50
0.0
 73
0
 44
1.0
  0
MTEXT
  5
62
100
AcDbEntity
100
AcDbMText
  8
Laser_Kana_Engrave
 62
256
370
-1
  6
ByLayer
 10
38.0
 20
40.0
 30
0.0
 40
10.0
 41
100.0
 71
5
 72
2
  1
R
  7
kochigothic
 50
0.0
 73
0
 44
1.0
  0
MTEXT
  5
63
100
AcDbEntity
100
AcDbMText
  8
Laser_Kana_Engrave
 62
256
370
-1
  6
ByLayer
 10
38.0
 20
60.0
 30
0.0
 40
10.0
 41
100.0
 71
5
 72
2
  1
T
  7
kochigothic
 50
0.0
 73
0
 44
1.0
  0
MTEXT
  5
64
100
AcDbEntity
100
AcDbMText
  8
Laser_Kana_Engrave
 62
256
370
-1
  6
ByLayer
 10
58.0
 20
60.0
 30
0.0
 40
10.0
 41
100.0
 71
5
 72
2
  1
S
  7
kochigothic
 50
0.0
 73
0
 44
1.0
  0
MTEXT
  5
65
100
AcDbEntity
100
AcDbMText
  8
Laser_Kana_Engrave
 62
256
370
-1
  6
ByLayer
 10
58.0
 20
40.0
 30
0.0
 40
10.0
 41
100.0
 71
5
 72
2
  1
M
  7
kochigothic
 50
0.0
 73
0
 44
1.0
  0
MTEXT
  5
66
100
AcDbEntity
100
AcDbMText
  8
Laser_Kana_Engrave
 62
256
370
-1
  6
ByLayer
 10
78.0
 20
60.0
 30
0.0
 40
10.0
 41
100.0
 71
5
 72
2
  1
K
  7
kochigothic
 50
0.0
 73
0
 44
1.0
  0
MTEXT
  5
67
100
AcDbEntity
100
AcDbMText
  8
Laser_Kana_Engrave
 62
256
370
-1
  6
ByLayer
 10
78.0
 20
40.0
 30
0.0
 40
10.0
 41
100.0
 71
5
 72
2
  1
H
  7
kochigothic
 50
0.0
 73
0
 44
1.0
  0
MTEXT
  5
68
100
AcDbEntity
100
AcDbMText
  8
Laser_Kana_Engrave
 62
256
370
-1
  6
ByLayer
 10
98.0
 20
40.0
 30
0.0
 40
10.0
 41
100.0
 71
5
 72
2
  1
Y
  7
kochigothic
 50
0.0
 73
0
 44
1.0
  0
MTEXT
  5
69
100
AcDbEntity
100
AcDbMText
  8
Laser_Kana_Engrave
 62
256
370
-1
  6
ByLayer
 10
46.0
 20
65.0
 30
0.0
 40
5.0
 41
100.0
 71
5
 72
2
  1
D
  7
kochigothic
 50
0.0
 73
1
 44
1.0
  0
MTEXT
  5
6A
100
AcDbEntity
100
AcDbMText
  8
Laser_Kana_Engrave
 62
256
370
-1
  6
ByLayer
 10
66.0
 20
65.0
 30
0.0
 40
5.0
 41
100.0
 71
5
 72
2
  1
Z
  7
kochigothic
 50
0.0
 73
1
 44
1.0
  0
MTEXT
  5
6B
100
AcDbEntity
100
AcDbMText
  8
Laser_Kana_Engrave
 62
256
370
-1
  6
ByLayer
 10
86.0
 20
65.0
 30
0.0
 40
5.0
 41
100.0
 71
5
 72
2
  1
G
  7
kochigothic
 50
0.0
 73
1
 44
1.0
  0
MTEXT
  5
6C
100
AcDbEntity
100
AcDbMText
  8
Laser_Kana_Engrave
 62
256
370
-1
  6
ByLayer
 10
86.0
 20
45.0
 30
0.0
 40
5.0
 41
100.0
 71
5
 72
2
  1
B
  7
kochigothic
 50
0.0
 73
1
 44
1.0
  0
MTEXT
  5
6D
100
AcDbEntity
100
AcDbMText
  8
Laser_Kana_Engrave
 62
256
370
-1
  6
ByLayer
 10
86.0
 20
35.0
 30
0.0
 40
5.0
 41
100.0
 71
5
 72
2
  1
P
  7
kochigothic
 50
0.0
 73
1
 44
1.0
  0
MTEXT
  5
6E
100
AcDbEntity
100
AcDbMText
  8
Laser_Kana_Engrave
 62
256
370
-1
  6
ByLayer
 10
170.0
 20
40.0
 30
0.0
 40
10.0
 41
100.0
 71
5
 72
2
  1
A
  7
kochigothic
 50
0.0
 73
1
 44
1.0
  0
MTEXT
  5
6F
100
AcDbEntity
100
AcDbMText
  8
Laser_Kana_Engrave
 62
256
370
-1
  6
ByLayer
 10
150.0
 20
40.0
 30
0.0
 40
10.0
 41
100.0
 71
5
 72
2
  1
I
  7
kochigothic
 50
0.0
 73
1
 44
1.0
  0
MTEXT
  5
70
100
AcDbEntity
100
AcDbMText
  8
Laser_Kana_Engrave
 62
256
370
-1
  6
ByLayer
 10
170.0
 20
60.0
 30
0.0
 40
10.0
 41
100.0
 71
5
 72
2
  1
U
  7
kochigothic
 50
0.0
 73
1
 44
1.0
  0
MTEXT
  5
71
100
AcDbEntity
100
AcDbMText
  8
Laser_Kana_Engrave
 62
256
370
-1
  6
ByLayer
 10
190.0
 20
40.0
 30
0.0
 40
10.0
 41
100.0
 71
5
 72
2
  1
E
  7
kochigothic
 50
0.0
 73
1
 44
1.0
  0
MTEXT
  5
72
100
AcDbEntity
100
AcDbMText
  8
Laser_Kana_Engrave
 62
256
370
-1
  6
ByLayer
 10
170.0
 20
20.0
 30
0.0
 40
10.0
 41
100.0
 71
5
 72
2
  1
O
  7
kochigothic
 50
0.0
 73
1
 44
1.0
  0
MTEXT
  5
73
100
AcDbEntity
100
AcDbMText
  8
Laser_Kana_Engrave
 62
256
370
-1
  6
ByLayer
 10
80.0
 20
20.0
 30
0.0
 40
10.0
 41
100.0
 71
5
 72
2
  1
YA
  7
kochigothic
 50
0.0
 73
1
 44
1.0
  0
MTEXT
  5
74
100
AcDbEntity
100
AcDbMText
  8
Laser_Kana_Engrave
 62
256
370
-1
  6
ByLayer
 10
100.0
 20
20.0
 30
0.0
 40
10.0
 41
100.0
 71
5
 72
2
  1
YU
  7
kochigothic
 50
0.0
 73
1
 44
1.0
  0
MTEXT
  5
75
100
AcDbEntity
100
AcDbMText
  8
Laser_Kana_Engrave
 62
256
370
-1
  6
ByLayer
 10
120.0
 20
20.0
 30
0.0
 40
10.0
 41
100.0
 71
5
 72
2
  1
YO
  7
kochigothic
 50
0.0
 73
1
 44
1.0
  0
MTEXT
  5
76
100
AcDbEntity
100
AcDbMText
  8
Laser_Kana_Engrave
 62
256
370
-1
  6
ByLayer
 10
20.699999999999989
 20
80.0
 30
0.0
 40
5.0
 41
100.0
 71
5
 72
2
  1
F3
  7
kochigothic
 50
0.0
 73
1
 44
1.0
  0
MTEXT
  5
77
100
AcDbEntity
100
AcDbMText
  8
Laser_Kana_Engrave
 62
256
370
-1
  6
ByLayer
 10
20.699999999999989
 20
90.0
 30
0.0
 40
5.0
 41
100.0
 71
5
 72
2
  1
F1
  7
kochigothic
 50
0.0
 73
1
 44
1.0
  0
MTEXT
  5
78
100
AcDbEntity
100
AcDbMText
  8
Laser_Kana_Engrave
 62
256
370
-1
  6
ByLayer
 10
42.699999999999989
 20
80.0
 30
0.0
 40
5.0
 41
100.0
 71
5
 72
2
  1
F4
  7
kochigothic
 50
0.0
 73
1
 44
1.0
  0
MTEXT
  5
79
100
AcDbEntity
100
AcDbMText
  8
Laser_Kana_Engrave
 62
256
370
-1
  6
ByLayer
 10
42.699999999999989
 20
90.0
 30
0.0
 40
5.0
 41
100.0
 71
5
 72
2
  1
F2
  7
kochigothic
 50
0.0
 73
1
 44
1.0
  0
LINE
  5
7A
100
AcDbEntity
100
AcDbLine
  8
ButtonGuide
 62
256
370
-1
  6
ByLayer
 10
10.0
 20
30.0
 30
0.0
 11
10.0
 21
70.0
 31
0.0
  0
LINE
  5
7B
100
AcDbEntity
100
AcDbLine
  8
ButtonGuide
 62
256
370
-1
  6
ByLayer
 10
10.0
 20
70.0
 30
0.0
 11
30.0
 21
70.0
 31
0.0
  0
LINE
  5
7C
100
AcDbEntity
100
AcDbLine
  8
ButtonGuide
 62
256
370
-1
  6
ByLayer
 10
30.0
 20
70.0
 30
0.0
 11
30.0
 21
30.0
 31
0.0
  0
LINE
  5
7D
100
AcDbEntity
100
AcDbLine
  8
ButtonGuide
 62
256
370
-1
  6
ByLayer
 10
30.0
 20
30.0
 30
0.0
 11
10.0
 21
30.0
 31
0.0
  0
LINE
  5
7E
100
AcDbEntity
100
AcDbLine
  8
ButtonGuide
 62
256
370
-1
  6
ByLayer
 10
10.0
 20
50.0
 30
0.0
 11
30.0
 21
50.0
 31
0.0
  0
LINE
  5
7F
100
AcDbEntity
100
AcDbLine
  8
ButtonGuide
 62
256
370
-1
  6
ByLayer
 10
30.0
 20
70.0
 30
0.0
 11
50.0
 21
70.0
 31
0.0
  0
LINE
  5
80
100
AcDbEntity
100
AcDbLine
  8
ButtonGuide
 62
256
370
-1
  6
ByLayer
 10
50.0
 20
70.0
 30
0.0
 11
50.0
 21
50.0
 31
0.0
  0
LINE
  5
81
100
AcDbEntity
100
AcDbLine
  8
ButtonGuide
 62
256
370
-1
  6
ByLayer
 10
50.0
 20
50.0
 30
0.0
 11
30.0
 21
50.0
 31
0.0
  0
LINE
  5
82
100
AcDbEntity
100
AcDbLine
  8
ButtonGuide
 62
256
370
-1
  6
ByLayer
 10
30.0
 20
30.0
 30
0.0
 11
50.0
 21
30.0
 31
0.0
  0
LINE
  5
83
100
AcDbEntity
100
AcDbLine
  8
ButtonGuide
 62
256
370
-1
  6
ByLayer
 10
50.0
 20
30.0
 30
0.0
 11
50.0
 21
50.0
 31
0.0
  0
LINE
  5
84
100
AcDbEntity
100
AcDbLine
  8
ButtonGuide
 62
256
370
-1
  6
ByLayer
 10
50.0
 20
50.0
 30
0.0
 11
70.0
 21
50.0
 31
0.0
  0
LINE
  5
85
100
AcDbEntity
100
AcDbLine
  8
ButtonGuide
 62
256
370
-1
  6
ByLayer
 10
70.0
 20
50.0
 30
0.0
 11
70.0
 21
70.0
 31
0.0
  0
LINE
  5
86
100
AcDbEntity
100
AcDbLine
  8
ButtonGuide
 62
256
370
-1
  6
ByLayer
 10
70.0
 20
70.0
 30
0.0
 11
50.0
 21
70.0
 31
0.0
  0
LINE
  5
87
100
AcDbEntity
100
AcDbLine
  8
ButtonGuide
 62
256
370
-1
  6
ByLayer
 10
50.0
 20
30.0
 30
0.0
 11
70.0
 21
30.0
 31
0.0
  0
LINE
  5
88
100
AcDbEntity
100
AcDbLine
  8
ButtonGuide
 62
256
370
-1
  6
ByLayer
 10
70.0
 20
30.0
 30
0.0
 11
70.0
 21
50.0
 31
0.0
  0
LINE
  5
89
100
AcDbEntity
100
AcDbLine
  8
ButtonGuide
 62
256
370
-1
  6
ByLayer
 10
70.0
 20
50.0
 30
0.0
 11
90.0
 21
50.0
 31
0.0
  0
LINE
  5
8A
100
AcDbEntity
100
AcDbLine
  8
ButtonGuide
 62
256
370
-1
  6
ByLayer
 10
90.0
 20
50.0
 30
0.0
 11
90.0
 21
70.0
 31
0.0
  0
LINE
  5
8B
100
AcDbEntity
100
AcDbLine
  8
ButtonGuide
 62
256
370
-1
  6
ByLayer
 10
90.0
 20
70.0
 30
0.0
 11
70.0
 21
70.0
 31
0.0
  0
LINE
  5
8C
100
AcDbEntity
100
AcDbLine
  8
ButtonGuide
 62
256
370
-1
  6
ByLayer
 10
70.0
 20
30.0
 30
0.0
 11
90.0
 21
30.0
 31
0.0
  0
LINE
  5
8D
100
AcDbEntity
100
AcDbLine
  8
ButtonGuide
 62
256
370
-1
  6
ByLayer
 10
90.0
 20
30.0
 30
0.0
 11
90.0
 21
50.0
 31
0.0
  0
LINE
  5
8E
100
AcDbEntity
100
AcDbLine
  8
ButtonGuide
 62
256
370
-1
  6
ByLayer
 10
90.0
 20
50.0
 30
0.0
 11
110.0
 21
50.0
 31
0.0
  0
LINE
  5
8F
100
AcDbEntity
100
AcDbLine
  8
ButtonGuide
 62
256
370
-1
  6
ByLayer
 10
110.0
 20
50.0
 30
0.0
 11
110.0
 21
70.0
 31
0.0
  0
LINE
  5
90
100
AcDbEntity
100
AcDbLine
  8
ButtonGuide
 62
256
370
-1
  6
ByLayer
 10
110.0
 20
70.0
 30
0.0
 11
90.0
 21
70.0
 31
0.0
  0
LINE
  5
91
100
AcDbEntity
100
AcDbLine
  8
ButtonGuide
 62
256
370
-1
  6
ByLayer
 10
90.0
 20
30.0
 30
0.0
 11
130.0
 21
30.0
 31
0.0
  0
LINE
  5
92
100
AcDbEntity
100
AcDbLine
  8
ButtonGuide
 62
256
370
-1
  6
ByLayer
 10
130.0
 20
30.0
 30
0.0
 11
130.0
 21
50.0
 31
0.0
  0
LINE
  5
93
100
AcDbEntity
100
AcDbLine
  8
ButtonGuide
 62
256
370
-1
  6
ByLayer
 10
130.0
 20
50.0
 30
0.0
 11
110.0
 21
50.0
 31
0.0
  0
LINE
  5
94
100
AcDbEntity
100
AcDbLine
  8
ButtonGuide
 62
256
370
-1
  6
ByLayer
 10
110.0
 20
50.0
 30
0.0
 11
110.0
 21
30.0
 31
0.0
  0
LINE
  5
95
100
AcDbEntity
100
AcDbLine
  8
ButtonGuide
 62
256
370
-1
  6
ByLayer
 10
200.0
 20
50.0
 30
0.0
 11
200.0
 21
30.0
 31
0.0
  0
LINE
  5
96
100
AcDbEntity
100
AcDbLine
  8
ButtonGuide
 62
256
370
-1
  6
ByLayer
 10
200.0
 20
30.0
 30
0.0
 11
180.0
 21
30.0
 31
0.0
  0
LINE
  5
97
100
AcDbEntity
100
AcDbLine
  8
ButtonGuide
 62
256
370
-1
  6
ByLayer
 10
180.0
 20
30.0
 30
0.0
 11
180.0
 21
50.0
 31
0.0
  0
LINE
  5
98
100
AcDbEntity
100
AcDbLine
  8
ButtonGuide
 62
256
370
-1
  6
ByLayer
 10
180.0
 20
50.0
 30
0.0
 11
160.0
 21
50.0
 31
0.0
  0
LINE
  5
99
100
AcDbEntity
100
AcDbLine
  8
ButtonGuide
 62
256
370
-1
  6
ByLayer
 10
160.0
 20
50.0
 30
0.0
 11
160.0
 21
30.0
 31
0.0
  0
LINE
  5
9A
100
AcDbEntity
100
AcDbLine
  8
ButtonGuide
 62
256
370
-1
  6
ByLayer
 10
160.0
 20
30.0
 30
0.0
 11
140.0
 21
30.0
 31
0.0
  0
LINE
  5
9B
100
AcDbEntity
100
AcDbLine
  8
ButtonGuide
 62
256
370
-1
  6
ByLayer
 10
140.0
 20
30.0
 30
0.0
 11
140.0
 21
50.0
 31
0.0
  0
LINE
  5
9C
100
AcDbEntity
100
AcDbLine
  8
ButtonGuide
 62
256
370
-1
  6
ByLayer
 10
140.0
 20
50.0
 30
0.0
 11
160.0
 21
50.0
 31
0.0
  0
LINE
  5
9D
100
AcDbEntity
100
AcDbLine
  8
ButtonGuide
 62
256
370
-1
  6
ByLayer
 10
160.0
 20
50.0
 30
0.0
 11
160.0
 21
70.0
 31
0.0
  0
LINE
  5
9E
100
AcDbEntity
100
AcDbLine
  8
ButtonGuide
 62
256
370
-1
  6
ByLayer
 10
160.0
 20
70.0
 30
0.0
 11
180.0
 21
70.0
 31
0.0
  0
LINE
  5
9F
100
AcDbEntity
100
AcDbLine
  8
ButtonGuide
 62
256
370
-1
  6
ByLayer
 10
180.0
 20
70.0
 30
0.0
 11
180.0
 21
50.0
 31
0.0
  0
LINE
  5
A0
100
AcDbEntity
100
AcDbLine
  8
ButtonGuide
 62
256
370
-1
  6
ByLayer
 10
180.0
 20
50.0
 30
0.0
 11
200.0
 21
50.0
 31
0.0
  0
LINE
  5
A1
100
AcDbEntity
100
AcDbLine
  8
ButtonGuide
 62
256
370
-1
  6
ByLayer
 10
160.0
 20
30.0
 30
0.0
 11
160.0
 21
10.0
 31
0.0
  0
LINE
  5
A2
100
AcDbEntity
100
AcDbLine
  8
ButtonGuide
 62
256
370
-1
  6
ByLayer
 10
160.0
 20
10.0
 30
0.0
 11
180.0
 21
10.0
 31
0.0
  0
LINE
  5
A3
100
AcDbEntity
100
AcDbLine
  8
ButtonGuide
 62
256
370
-1
  6
ByLayer
 10
180.0
 20
10.0
 30
0.0
 11
180.0
 21
30.0
 31
0.0
  0
LINE
  5
A4
100
AcDbEntity
100
AcDbLine
  8
ButtonGuide
 62
256
370
-1
  6
ByLayer
 10
180.0
 20
30.0
 30
0.0
 11
160.0
 21
30.0
 31
0.0
  0
LINE
  5
A5
100
AcDbEntity
100
AcDbLine
  8
ButtonGuide
 62
256
370
-1
  6
ByLayer
 10
130.0
 20
30.0
 30
0.0
 11
130.0
 21
10.0
 31
0.0
  0
LINE
  5
A6
100
AcDbEntity
100
AcDbLine
  8
ButtonGuide
 62
256
370
-1
  6
ByLayer
 10
130.0
 20
10.0
 30
0.0
 11
70.0
 21
10.0
 31
0.0
  0
LINE
  5
A7
100
AcDbEntity
100
AcDbLine
  8
ButtonGuide
 62
256
370
-1
  6
ByLayer
 10
70.0
 20
10.0
 30
0.0
 11
70.0
 21
30.0
 31
0.0
  0
LINE
  5
A8
100
AcDbEntity
100
AcDbLine
  8
ButtonGuide
 62
256
370
-1
  6
ByLayer
 10
90.0
 20
30.0
 30
0.0
 11
90.0
 21
10.0
 31
0.0
  0
LINE
  5
A9
100
AcDbEntity
100
AcDbLine
  8
ButtonGuide
 62
256
370
-1
  6
ByLayer
 10
110.0
 20
30.0
 30
0.0
 11
110.0
 21
10.0
 31
0.0
  0
LINE
  5
AA
100
AcDbEntity
100
AcDbLine
  8
ButtonGuide
 62
256
370
-1
  6
ByLayer
 10
30.699999999999989
 20
75.0
 30
0.0
 11
10.699999999999989
 21
75.0
 31
0.0
  0
LINE
  5
AB
100
AcDbEntity
100
AcDbLine
  8
ButtonGuide
 62
256
370
-1
  6
ByLayer
 10
10.699999999999989
 20
75.0
 30
0.0
 11
10.699999999999989
 21
85.0
 31
0.0
  0
LINE
  5
AC
100
AcDbEntity
100
AcDbLine
  8
ButtonGuide
 62
256
370
-1
  6
ByLayer
 10
30.699999999999989
 20
75.0
 30
0.0
 11
30.699999999999989
 21
85.0
 31
0.0
  0
LINE
  5
AD
100
AcDbEntity
100
AcDbLine
  8
ButtonGuide
 62
256
370
-1
  6
ByLayer
 10
30.699999999999989
 20
85.0
 30
0.0
 11
10.699999999999989
 21
85.0
 31
0.0
  0
LINE
  5
AE
100
AcDbEntity
100
AcDbLine
  8
ButtonGuide
 62
256
370
-1
  6
ByLayer
 10
30.699999999999989
 20
95.0
 30
0.0
 11
10.699999999999989
 21
95.0
 31
0.0
  0
LINE
  5
AF
100
AcDbEntity
100
AcDbLine
  8
ButtonGuide
 62
256
370
-1
  6
ByLayer
 10
30.699999999999989
 20
95.0
 30
0.0
 11
30.699999999999989
 21
85.0
 31
0.0
  0
LINE
  5
B0
100
AcDbEntity
100
AcDbLine
  8
ButtonGuide
 62
256
370
-1
  6
ByLayer
 10
10.699999999999989
 20
95.0
 30
0.0
 11
10.699999999999989
 21
85.0
 31
0.0
  0
LINE
  5
B1
100
AcDbEntity
100
AcDbLine
  8
ButtonGuide
 62
256
370
-1
  6
ByLayer
 10
10.699999999999989
 20
85.0
 30
0.0
 11
30.699999999999989
 21
85.0
 31
0.0
  0
LINE
  5
B2
100
AcDbEntity
100
AcDbLine
  8
ButtonGuide
 62
256
370
-1
  6
ByLayer
 10
32.699999999999989
 20
75.0
 30
0.0
 11
52.699999999999989
 21
75.0
 31
0.0
  0
LINE
  5
B3
100
AcDbEntity
100
AcDbLine
  8
ButtonGuide
 62
256
370
-1
  6
ByLayer
 10
32.699999999999989
 20
75.0
 30
0.0
 11
32.699999999999989
 21
85.0
 31
0.0
  0
LINE
  5
B4
100
AcDbEntity
100
AcDbLine
  8
ButtonGuide
 62
256
370
-1
  6
ByLayer
 10
52.699999999999989
 20
75.0
 30
0.0
 11
52.699999999999989
 21
85.0
 31
0.0
  0
LINE
  5
B5
100
AcDbEntity
100
AcDbLine
  8
ButtonGuide
 62
256
370
-1
  6
ByLayer
 10
52.699999999999989
 20
85.0
 30
0.0
 11
32.699999999999989
 21
85.0
 31
0.0
  0
LINE
  5
B6
100
AcDbEntity
100
AcDbLine
  8
ButtonGuide
 62
256
370
-1
  6
ByLayer
 10
32.699999999999989
 20
95.0
 30
0.0
 11
52.699999999999989
 21
95.0
 31
0.0
  0
LINE
  5
B7
100
AcDbEntity
100
AcDbLine
  8
ButtonGuide
 62
256
370
-1
  6
ByLayer
 10
32.699999999999989
 20
95.0
 30
0.0
 11
32.699999999999989
 21
85.0
 31
0.0
  0
LINE
  5
B8
100
AcDbEntity
100
AcDbLine
  8
ButtonGuide
 62
256
370
-1
  6
ByLayer
 10
52.699999999999989
 20
95.0
 30
0.0
 11
52.699999999999989
 21
85.0
 31
0.0
  0
LINE
  5
B9
100
AcDbEntity
100
AcDbLine
  8
ButtonGuide
 62
256
370
-1
  6
ByLayer
 10
32.699999999999989
 20
85.0
 30
0.0
 11
52.699999999999989
 21
85.0
 31
0.0
  0
LINE
  5
BA
100
AcDbEntity
100
AcDbLine
  8
Laser-Cut
 62
256
370
-1
  6
ByLayer
 10
32.699999999999989
 20
94.900000000000006
 30
0.0
 11
52.699999999999989
 21
94.900000000000006
 31
0.0
  0
LINE
  5
BB
100
AcDbEntity
100
AcDbLine
  8
Laser-Cut
 62
256
370
-1
  6
ByLayer
 10
32.79999999999999
 20
95.0
 30
0.0
 11
32.79999999999999
 21
85.0
 31
0.0
  0
LINE
  5
BC
100
AcDbEntity
100
AcDbLine
  8
Laser-Cut
 62
256
370
-1
  6
ByLayer
 10
52.699999999999989
 20
85.099999999999994
 30
0.0
 11
32.699999999999989
 21
85.099999999999994
 31
0.0
  0
LINE
  5
BD
100
AcDbEntity
100
AcDbLine
  8
Laser-Cut
 62
256
370
-1
  6
ByLayer
 10
52.599999999999987
 20
95.0
 30
0.0
 11
52.599999999999987
 21
85.0
 31
0.0
  0
LINE
  5
BE
100
AcDbEntity
100
AcDbLine
  8
Laser-Cut
 62
256
370
-1
  6
ByLayer
 10
52.599999999999987
 20
75.0
 30
0.0
 11
52.599999999999987
 21
85.0
 31
0.0
  0
LINE
  5
BF
100
AcDbEntity
100
AcDbLine
  8
Laser-Cut
 62
256
370
-1
  6
ByLayer
 10
52.699999999999989
 20
84.900000000000006
 30
0.0
 11
32.699999999999989
 21
84.900000000000006
 31
0.0
  0
LINE
  5
C0
100
AcDbEntity
100
AcDbLine
  8
Laser-Cut
 62
256
370
-1
  6
ByLayer
 10
32.79999999999999
 20
75.0
 30
0.0
 11
32.79999999999999
 21
85.0
 31
0.0
  0
LINE
  5
C1
100
AcDbEntity
100
AcDbLine
  8
Laser-Cut
 62
256
370
-1
  6
ByLayer
 10
30.599999999999987
 20
75.0
 30
0.0
 11
30.599999999999987
 21
85.0
 31
0.0
  0
LINE
  5
C2
100
AcDbEntity
100
AcDbLine
  8
Laser-Cut
 62
256
370
-1
  6
ByLayer
 10
30.699999999999989
 20
84.900000000000006
 30
0.0
 11
10.699999999999989
 21
84.900000000000006
 31
0.0
  0
LINE
  5
C3
100
AcDbEntity
100
AcDbLine
  8
Laser-Cut
 62
256
370
-1
  6
ByLayer
 10
30.699999999999989
 20
85.099999999999994
 30
0.0
 11
10.699999999999989
 21
85.099999999999994
 31
0.0
  0
LINE
  5
C4
100
AcDbEntity
100
AcDbLine
  8
Laser-Cut
 62
256
370
-1
  6
ByLayer
 10
30.599999999999987
 20
95.0
 30
0.0
 11
30.599999999999987
 21
85.0
 31
0.0
  0
LINE
  5
C5
100
AcDbEntity
100
AcDbLine
  8
Laser-Cut
 62
256
370
-1
  6
ByLayer
 10
30.699999999999989
 20
94.900000000000006
 30
0.0
 11
10.699999999999989
 21
94.900000000000006
 31
0.0
  0
LINE
  5
C6
100
AcDbEntity
100
AcDbLine
  8
Laser-Cut
 62
256
370
-1
  6
ByLayer
 10
32.699999999999989
 20
75.099999999999994
 30
0.0
 11
52.699999999999989
 21
75.099999999999994
 31
0.0
  0
LINE
  5
C7
100
AcDbEntity
100
AcDbLine
  8
Laser-Cut
 62
256
370
-1
  6
ByLayer
 10
30.699999999999989
 20
75.099999999999994
 30
0.0
 11
10.699999999999989
 21
75.099999999999994
 31
0.0
  0
LINE
  5
C8
100
AcDbEntity
100
AcDbLine
  8
Laser-Cut
 62
256
370
-1
  6
ByLayer
 10
10.799999999999988
 20
75.0
 30
0.0
 11
10.799999999999988
 21
85.0
 31
0.0
  0
LINE
  5
C9
100
AcDbEntity
100
AcDbLine
  8
Laser-Cut
 62
256
370
-1
  6
ByLayer
 10
10.799999999999988
 20
95.0
 30
0.0
 11
10.799999999999988
 21
85.0
 31
0.0
  0
LINE
  5
CA
100
AcDbEntity
100
AcDbLine
  8
Laser-Cut
 62
256
370
-1
  6
ByLayer
 10
10.0
 20
69.900000000000006
 30
0.0
 11
30.0
 21
69.900000000000006
 31
0.0
  0
LINE
  5
CB
100
AcDbEntity
100
AcDbLine
  8
Laser-Cut
 62
256
370
-1
  6
ByLayer
 10
29.899999999999999
 20
70.0
 30
0.0
 11
29.899999999999999
 21
30.0
 31
0.0
  0
LINE
  5
CC
100
AcDbEntity
100
AcDbLine
  8
Laser-Cut
 62
256
370
-1
  6
ByLayer
 10
30.0
 20
69.900000000000006
 30
0.0
 11
50.0
 21
69.900000000000006
 31
0.0
  0
LINE
  5
CD
100
AcDbEntity
100
AcDbLine
  8
Laser-Cut
 62
256
370
-1
  6
ByLayer
 10
30.100000000000001
 20
70.0
 30
0.0
 11
30.100000000000001
 21
30.0
 31
0.0
  0
LINE
  5
CE
100
AcDbEntity
100
AcDbLine
  8
Laser-Cut
 62
256
370
-1
  6
ByLayer
 10
10.1
 20
30.0
 30
0.0
 11
10.1
 21
70.0
 31
0.0
  0
LINE
  5
CF
100
AcDbEntity
100
AcDbLine
  8
Laser-Cut
 62
256
370
-1
  6
ByLayer
 10
10.0
 20
49.899999999999999
 30
0.0
 11
30.0
 21
49.899999999999999
 31
0.0
  0
LINE
  5
D0
100
AcDbEntity
100
AcDbLine
  8
Laser-Cut
 62
256
370
-1
  6
ByLayer
 10
10.0
 20
50.100000000000001
 30
0.0
 11
30.0
 21
50.100000000000001
 31
0.0
  0
LINE
  5
D1
100
AcDbEntity
100
AcDbLine
  8
Laser-Cut
 62
256
370
-1
  6
ByLayer
 10
50.0
 20
49.899999999999999
 30
0.0
 11
30.0
 21
49.899999999999999
 31
0.0
  0
LINE
  5
D2
100
AcDbEntity
100
AcDbLine
  8
Laser-Cut
 62
256
370
-1
  6
ByLayer
 10
50.0
 20
50.100000000000001
 30
0.0
 11
30.0
 21
50.100000000000001
 31
0.0
  0
LINE
  5
D3
100
AcDbEntity
100
AcDbLine
  8
Laser-Cut
 62
256
370
-1
  6
ByLayer
 10
50.0
 20
49.899999999999999
 30
0.0
 11
70.0
 21
49.899999999999999
 31
0.0
  0
LINE
  5
D4
100
AcDbEntity
100
AcDbLine
  8
Laser-Cut
 62
256
370
-1
  6
ByLayer
 10
50.0
 20
50.100000000000001
 30
0.0
 11
70.0
 21
50.100000000000001
 31
0.0
  0
LINE
  5
D5
100
AcDbEntity
100
AcDbLine
  8
Laser-Cut
 62
256
370
-1
  6
ByLayer
 10
49.899999999999999
 20
70.0
 30
0.0
 11
49.899999999999999
 21
50.0
 31
0.0
  0
LINE
  5
D6
100
AcDbEntity
100
AcDbLine
  8
Laser-Cut
 62
256
370
-1
  6
ByLayer
 10
50.100000000000001
 20
70.0
 30
0.0
 11
50.100000000000001
 21
50.0
 31
0.0
  0
LINE
  5
D7
100
AcDbEntity
100
AcDbLine
  8
Laser-Cut
 62
256
370
-1
  6
ByLayer
 10
50.100000000000001
 20
30.0
 30
0.0
 11
50.100000000000001
 21
50.0
 31
0.0
  0
LINE
  5
D8
100
AcDbEntity
100
AcDbLine
  8
Laser-Cut
 62
256
370
-1
  6
ByLayer
 10
49.899999999999999
 20
30.0
 30
0.0
 11
49.899999999999999
 21
50.0
 31
0.0
  0
LINE
  5
D9
100
AcDbEntity
100
AcDbLine
  8
Laser-Cut
 62
256
370
-1
  6
ByLayer
 10
69.900000000000006
 20
30.0
 30
0.0
 11
69.900000000000006
 21
50.0
 31
0.0
  0
LINE
  5
DA
100
AcDbEntity
100
AcDbLine
  8
Laser-Cut
 62
256
370
-1
  6
ByLayer
 10
70.099999999999994
 20
30.0
 30
0.0
 11
70.099999999999994
 21
50.0
 31
0.0
  0
LINE
  5
DB
100
AcDbEntity
100
AcDbLine
  8
Laser-Cut
 62
256
370
-1
  6
ByLayer
 10
70.0
 20
49.899999999999999
 30
0.0
 11
90.0
 21
49.899999999999999
 31
0.0
  0
LINE
  5
DC
100
AcDbEntity
100
AcDbLine
  8
Laser-Cut
 62
256
370
-1
  6
ByLayer
 10
70.0
 20
50.100000000000001
 30
0.0
 11
90.0
 21
50.100000000000001
 31
0.0
  0
LINE
  5
DD
100
AcDbEntity
100
AcDbLine
  8
Laser-Cut
 62
256
370
-1
  6
ByLayer
 10
70.099999999999994
 20
50.0
 30
0.0
 11
70.099999999999994
 21
70.0
 31
0.0
  0
LINE
  5
DE
100
AcDbEntity
100
AcDbLine
  8
Laser-Cut
 62
256
370
-1
  6
ByLayer
 10
69.900000000000006
 20
50.0
 30
0.0
 11
69.900000000000006
 21
70.0
 31
0.0
  0
LINE
  5
DF
100
AcDbEntity
100
AcDbLine
  8
Laser-Cut
 62
256
370
-1
  6
ByLayer
 10
70.0
 20
69.900000000000006
 30
0.0
 11
50.0
 21
69.900000000000006
 31
0.0
  0
LINE
  5
E0
100
AcDbEntity
100
AcDbLine
  8
Laser-Cut
 62
256
370
-1
  6
ByLayer
 10
90.0
 20
69.900000000000006
 30
0.0
 11
70.0
 21
69.900000000000006
 31
0.0
  0
LINE
  5
E1
100
AcDbEntity
100
AcDbLine
  8
Laser-Cut
 62
256
370
-1
  6
ByLayer
 10
89.900000000000006
 20
50.0
 30
0.0
 11
89.900000000000006
 21
70.0
 31
0.0
  0
LINE
  5
E2
100
AcDbEntity
100
AcDbLine
  8
Laser-Cut
 62
256
370
-1
  6
ByLayer
 10
89.900000000000006
 20
30.0
 30
0.0
 11
89.900000000000006
 21
50.0
 31
0.0
  0
LINE
  5
E3
100
AcDbEntity
100
AcDbLine
  8
Laser-Cut
 62
256
370
-1
  6
ByLayer
 10
109.90000000000001
 20
50.0
 30
0.0
 11
109.90000000000001
 21
70.0
 31
0.0
  0
LINE
  5
E4
100
AcDbEntity
100
AcDbLine
  8
Laser-Cut
 62
256
370
-1
  6
ByLayer
 10
110.0
 20
69.900000000000006
 30
0.0
 11
90.0
 21
69.900000000000006
 31
0.0
  0
LINE
  5
E5
100
AcDbEntity
100
AcDbLine
  8
Laser-Cut
 62
256
370
-1
  6
ByLayer
 10
90.0
 20
50.100000000000001
 30
0.0
 11
110.0
 21
50.100000000000001
 31
0.0
  0
LINE
  5
E6
100
AcDbEntity
100
AcDbLine
  8
Laser-Cut
 62
256
370
-1
  6
ByLayer
 10
90.0
 20
49.899999999999999
 30
0.0
 11
110.0
 21
49.899999999999999
 31
0.0
  0
LINE
  5
E7
100
AcDbEntity
100
AcDbLine
  8
Laser-Cut
 62
256
370
-1
  6
ByLayer
 10
109.90000000000001
 20
50.0
 30
0.0
 11
109.90000000000001
 21
30.0
 31
0.0
  0
LINE
  5
E8
100
AcDbEntity
100
AcDbLine
  8
Laser-Cut
 62
256
370
-1
  6
ByLayer
 10
110.09999999999999
 20
50.0
 30
0.0
 11
110.09999999999999
 21
30.0
 31
0.0
  0
LINE
  5
E9
100
AcDbEntity
100
AcDbLine
  8
Laser-Cut
 62
256
370
-1
  6
ByLayer
 10
130.0
 20
49.899999999999999
 30
0.0
 11
110.0
 21
49.899999999999999
 31
0.0
  0
LINE
  5
EA
100
AcDbEntity
100
AcDbLine
  8
Laser-Cut
 62
256
370
-1
  6
ByLayer
 10
90.099999999999994
 20
30.0
 30
0.0
 11
90.099999999999994
 21
50.0
 31
0.0
  0
LINE
  5
EB
100
AcDbEntity
100
AcDbLine
  8
Laser-Cut
 62
256
370
-1
  6
ByLayer
 10
90.0
 20
29.899999999999999
 30
0.0
 11
130.0
 21
29.899999999999999
 31
0.0
  0
LINE
  5
EC
100
AcDbEntity
100
AcDbLine
  8
Laser-Cut
 62
256
370
-1
  6
ByLayer
 10
90.0
 20
30.100000000000001
 30
0.0
 11
130.0
 21
30.100000000000001
 31
0.0
  0
LINE
  5
ED
100
AcDbEntity
100
AcDbLine
  8
Laser-Cut
 62
256
370
-1
  6
ByLayer
 10
70.0
 20
29.899999999999999
 30
0.0
 11
90.0
 21
29.899999999999999
 31
0.0
  0
LINE
  5
EE
100
AcDbEntity
100
AcDbLine
  8
Laser-Cut
 62
256
370
-1
  6
ByLayer
 10
70.0
 20
30.100000000000001
 30
0.0
 11
90.0
 21
30.100000000000001
 31
0.0
  0
LINE
  5
EF
100
AcDbEntity
100
AcDbLine
  8
Laser-Cut
 62
256
370
-1
  6
ByLayer
 10
50.0
 20
30.100000000000001
 30
0.0
 11
70.0
 21
30.100000000000001
 31
0.0
  0
LINE
  5
F0
100
AcDbEntity
100
AcDbLine
  8
Laser-Cut
 62
256
370
-1
  6
ByLayer
 10
69.900000000000006
 20
10.0
 30
0.0
 11
69.900000000000006
 21
30.0
 31
0.0
  0
LINE
  5
F1
100
AcDbEntity
100
AcDbLine
  8
Laser-Cut
 62
256
370
-1
  6
ByLayer
 10
70.099999999999994
 20
10.0
 30
0.0
 11
70.099999999999994
 21
30.0
 31
0.0
  0
LINE
  5
F2
100
AcDbEntity
100
AcDbLine
  8
Laser-Cut
 62
256
370
-1
  6
ByLayer
 10
89.900000000000006
 20
30.0
 30
0.0
 11
89.900000000000006
 21
10.0
 31
0.0
  0
LINE
  5
F3
100
AcDbEntity
100
AcDbLine
  8
Laser-Cut
 62
256
370
-1
  6
ByLayer
 10
90.099999999999994
 20
30.0
 30
0.0
 11
90.099999999999994
 21
10.0
 31
0.0
  0
LINE
  5
F4
100
AcDbEntity
100
AcDbLine
  8
Laser-Cut
 62
256
370
-1
  6
ByLayer
 10
109.90000000000001
 20
30.0
 30
0.0
 11
109.90000000000001
 21
10.0
 31
0.0
  0
LINE
  5
F5
100
AcDbEntity
100
AcDbLine
  8
Laser-Cut
 62
256
370
-1
  6
ByLayer
 10
110.09999999999999
 20
30.0
 30
0.0
 11
110.09999999999999
 21
10.0
 31
0.0
  0
LINE
  5
F6
100
AcDbEntity
100
AcDbLine
  8
Laser-Cut
 62
256
370
-1
  6
ByLayer
 10
130.0
 20
10.1
 30
0.0
 11
70.0
 21
10.1
 31
0.0
  0
LINE
  5
F7
100
AcDbEntity
100
AcDbLine
  8
Laser-Cut
 62
256
370
-1
  6
ByLayer
 10
129.90000000000001
 20
30.0
 30
0.0
 11
129.90000000000001
 21
10.0
 31
0.0
  0
LINE
  5
F8
100
AcDbEntity
100
AcDbLine
  8
Laser-Cut
 62
256
370
-1
  6
ByLayer
 10
129.90000000000001
 20
30.0
 30
0.0
 11
129.90000000000001
 21
50.0
 31
0.0
  0
LINE
  5
F9
100
AcDbEntity
100
AcDbLine
  8
Laser-Cut
 62
256
370
-1
  6
ByLayer
 10
30.0
 20
30.100000000000001
 30
0.0
 11
10.0
 21
30.100000000000001
 31
0.0
  0
LINE
  5
FA
100
AcDbEntity
100
AcDbLine
  8
Laser-Cut
 62
256
370
-1
  6
ByLayer
 10
30.0
 20
30.100000000000001
 30
0.0
 11
50.0
 21
30.100000000000001
 31
0.0
  0
LINE
  5
FB
100
AcDbEntity
100
AcDbLine
  8
Laser-Cut
 62
256
370
-1
  6
ByLayer
 10
160.0
 20
30.100000000000001
 30
0.0
 11
140.0
 21
30.100000000000001
 31
0.0
  0
LINE
  5
FC
100
AcDbEntity
100
AcDbLine
  8
Laser-Cut
 62
256
370
-1
  6
ByLayer
 10
159.90000000000001
 20
50.0
 30
0.0
 11
159.90000000000001
 21
30.0
 31
0.0
  0
LINE
  5
FD
100
AcDbEntity
100
AcDbLine
  8
Laser-Cut
 62
256
370
-1
  6
ByLayer
 10
180.0
 20
30.100000000000001
 30
0.0
 11
160.0
 21
30.100000000000001
 31
0.0
  0
LINE
  5
FE
100
AcDbEntity
100
AcDbLine
  8
Laser-Cut
 62
256
370
-1
  6
ByLayer
 10
160.09999999999999
 20
50.0
 30
0.0
 11
160.09999999999999
 21
30.0
 31
0.0
  0
LINE
  5
FF
100
AcDbEntity
100
AcDbLine
  8
Laser-Cut
 62
256
370
-1
  6
ByLayer
 10
160.09999999999999
 20
30.0
 30
0.0
 11
160.09999999999999
 21
10.0
 31
0.0
  0
LINE
  5
100
100
AcDbEntity
100
AcDbLine
  8
Laser-Cut
 62
256
370
-1
  6
ByLayer
 10
200.0
 20
30.100000000000001
 30
0.0
 11
180.0
 21
30.100000000000001
 31
0.0
  0
LINE
  5
101
100
AcDbEntity
100
AcDbLine
  8
Laser-Cut
 62
256
370
-1
  6
ByLayer
 10
179.90000000000001
 20
10.0
 30
0.0
 11
179.90000000000001
 21
30.0
 31
0.0
  0
LINE
  5
102
100
AcDbEntity
100
AcDbLine
  8
Laser-Cut
 62
256
370
-1
  6
ByLayer
 10
180.0
 20
29.899999999999999
 30
0.0
 11
160.0
 21
29.899999999999999
 31
0.0
  0
LINE
  5
103
100
AcDbEntity
100
AcDbLine
  8
Laser-Cut
 62
256
370
-1
  6
ByLayer
 10
179.90000000000001
 20
30.0
 30
0.0
 11
179.90000000000001
 21
50.0
 31
0.0
  0
LINE
  5
104
100
AcDbEntity
100
AcDbLine
  8
Laser-Cut
 62
256
370
-1
  6
ByLayer
 10
180.09999999999999
 20
30.0
 30
0.0
 11
180.09999999999999
 21
50.0
 31
0.0
  0
LINE
  5
105
100
AcDbEntity
100
AcDbLine
  8
Laser-Cut
 62
256
370
-1
  6
ByLayer
 10
199.90000000000001
 20
50.0
 30
0.0
 11
199.90000000000001
 21
30.0
 31
0.0
  0
LINE
  5
106
100
AcDbEntity
100
AcDbLine
  8
Laser-Cut
 62
256
370
-1
  6
ByLayer
 10
180.0
 20
49.899999999999999
 30
0.0
 11
200.0
 21
49.899999999999999
 31
0.0
  0
LINE
  5
107
100
AcDbEntity
100
AcDbLine
  8
Laser-Cut
 62
256
370
-1
  6
ByLayer
 10
180.0
 20
49.899999999999999
 30
0.0
 11
160.0
 21
49.899999999999999
 31
0.0
  0
LINE
  5
108
100
AcDbEntity
100
AcDbLine
  8
Laser-Cut
 62
256
370
-1
  6
ByLayer
 10
180.0
 20
50.100000000000001
 30
0.0
 11
160.0
 21
50.100000000000001
 31
0.0
  0
LINE
  5
109
100
AcDbEntity
100
AcDbLine
  8
Laser-Cut
 62
256
370
-1
  6
ByLayer
 10
179.90000000000001
 20
70.0
 30
0.0
 11
179.90000000000001
 21
50.0
 31
0.0
  0
LINE
  5
10A
100
AcDbEntity
100
AcDbLine
  8
Laser-Cut
 62
256
370
-1
  6
ByLayer
 10
160.09999999999999
 20
50.0
 30
0.0
 11
160.09999999999999
 21
70.0
 31
0.0
  0
LINE
  5
10B
100
AcDbEntity
100
AcDbLine
  8
Laser-Cut
 62
256
370
-1
  6
ByLayer
 10
140.0
 20
49.899999999999999
 30
0.0
 11
160.0
 21
49.899999999999999
 31
0.0
  0
LINE
  5
10C
100
AcDbEntity
100
AcDbLine
  8
Laser-Cut
 62
256
370
-1
  6
ByLayer
 10
140.09999999999999
 20
30.0
 30
0.0
 11
140.09999999999999
 21
50.0
 31
0.0
  0
LINE
  5
10D
100
AcDbEntity
100
AcDbLine
  8
Laser-Cut
 62
256
370
-1
  6
ByLayer
 10
160.0
 20
69.900000000000006
 30
0.0
 11
180.0
 21
69.900000000000006
 31
0.0
  0
LINE
  5
10E
100
AcDbEntity
100
AcDbLine
  8
Laser-Cut
 62
256
370
-1
  6
ByLayer
 10
160.0
 20
10.1
 30
0.0
 11
180.0
 21
10.1
 31
0.0
  0
ENDSEC
  0
SECTION
  2
OBJECTS
  0
DICTIONARY
  5
C
100
AcDbDictionary
280
0
281
1
  3
ACAD_GROUP
350
D
  3
ACAD_LAYOUT
350
1A
  3
ACAD_MLINESTYLE
350
17
  3
ACAD_PLOTSETTINGS
350
19
  3
ACAD_PLOTSTYLENAME
350
E
  3
AcDbVariableDictionary
350
10F
  0
DICTIONARY
  5
D
100
AcDbDictionary
280
0
281
1
  0
ACDBDICTIONARYWDFLT
  5
E
100
AcDbDictionary
281
1
  3
Normal
350
F
100
AcDbDictionaryWithDefault
340
F
  0
ACDBPLACEHOLDER
  5
F
  0
DICTIONARY
  5
17
100
AcDbDictionary
280
0
281
1
  3
Standard
350
18
  0
MLINESTYLE
  5
18
100
AcDbMlineStyle
  2
STANDARD
 70
0
  3

 62
256
 51
90.0
 52
90.0
 71
2
 49
0.5
 62
256
  6
BYLAYER
 49
-0.5
 62
256
  6
BYLAYER
  0
DICTIONARY
  5
19
100
AcDbDictionary
280
0
281
1
  0
DICTIONARY
  5
1A
100
AcDbDictionary
281
1
  3
Layout1
350
1E
  3
Layout2
350
26
  3
Model
350
22
  0
LAYOUT
  5
1E
100
AcDbPlotSettings
  1

  2
C:\Program Files\AutoCAD 2002\plotters\DWF ePlot (optimized for plotting).pc3
  4

  6

 40
0.0
 41
0.0
 42
0.0
 43
0.0
 44
0.0
 45
0.0
 46
0.0
 47
0.0
 48
0.0
 49
0.0
140
0.0
141
0.0
142
1.0
143
1.0
 70
688
 72
0
 73
0
 74
5
  7

 75
16
147
1.0
148
0.0
149
0.0
100
AcDbLayout
  1
Layout1
 70
1
 71
1
 10
0.0
 20
0.0
 11
420.0
 21
297.0
 12
0.0
 22
0.0
 32
0.0
 14
100000000000000000000.0
 24
100000000000000000000.0
 34
100000000000000000000.0
 15
-100000000000000000000.0
 25
-100000000000000000000.0
 35
-100000000000000000000.0
146
0.0
 13
0.0
 23
0.0
 33
0.0
 16
1.0
 26
0.0
 36
0.0
 17
0.0
 27
1.0
 37
0.0
 76
0
330
1B
  0
LAYOUT
  5
22
100
AcDbPlotSettings
  1

  2
C:\Program Files\AutoCAD 2002\plotters\DWF ePlot (optimized for plotting).pc3
  4

  6

 40
0.0
 41
0.0
 42
0.0
 43
0.0
 44
0.0
 45
0.0
 46
0.0
 47
0.0
 48
0.0
 49
0.0
140
0.0
141
0.0
142
1.0
143
1.0
 70
1712
 72
0
 73
0
 74
0
  7

 75
0
147
1.0
148
0.0
149
0.0
100
AcDbLayout
  1
Model
 70
1
 71
0
 10
0.0
 20
0.0
 11
12.0
 21
9.0
 12
0.0
 22
0.0
 32
0.0
 14
0.0
 24
0.0
 34
0.0
 15
0.0
 25
0.0
 35
0.0
146
0.0
 13
0.0
 23
0.0
 33
0.0
 16
1.0
 26
0.0
 36
0.0
 17
0.0
 27
1.0
 37
0.0
 76
0
330
1F
  0
LAYOUT
  5
26
100
AcDbPlotSettings
  1

  2
C:\Program Files\AutoCAD 2002\plotters\DWF ePlot (optimized for plotting).pc3
  4

  6

 40
0.0
 41
0.0
 42
0.0
 43
0.0
 44
0.0
 45
0.0
 46
0.0
 47
0.0
 48
0.0
 49
0.0
140
0.0
141
0.0
142
1.0
143
1.0
 70
688
 72
0
 73
0
 74
5
  7

 75
16
147
1.0
148
0.0
149
0.0
100
AcDbLayout
  1
Layout2
 70
1
 71
2
 10
0.0
 20
0.0
 11
12.0
 21
9.0
 12
0.0
 22
0.0
 32
0.0
 14
0.0
 24
0.0
 34
0.0
 15
0.0
 25
0.0
 35
0.0
146
0.0
 13
0.0
 23
0.0
 33
0.0
 16
1.0
 26
0.0
 36
0.0
 17
0.0
 27
1.0
 37
0.0
 76
0
330
23
  0
DICTIONARY
  5
10F
100
AcDbDictionary
281
1
  3
DIMASSOC
350
111
  3
HIDETEXT
350
110
  0
DICTIONARYVAR
  5
110
100
DictionaryVariables
280
0
  1
2
  0
DICTIONARYVAR
  5
111
100
DictionaryVariables
280
0
  1
1
  0
ENDSEC
  0
EOF
